<?xml version="1.0" encoding="utf-8"?>
<!-- Generator: Adobe Illustrator 24.3.0, SVG Export Plug-In . SVG Version: 6.00 Build 0)  -->
<svg version="1.1" id="Layer_1" xmlns="http://www.w3.org/2000/svg" xmlns:xlink="http://www.w3.org/1999/xlink" x="0px" y="0px"
	 viewBox="0 0 839 295" style="enable-background:new 0 0 839 295;" xml:space="preserve">
<style type="text/css">
	.st0{fill:#FFFFFF;}
</style>
<path class="st0" d="M664.34,123.32c-0.78-0.18-1.52-0.36-2.25-0.54c0.33-1.9,0.63-3.84,0.87-5.84
	c2.72-22.55-8.95-35.06-21.36-34.58c-5.72,0.22-10.61,2.49-14.18,7.27c-8.89-0.97-27.39,7.79-34.09,36.21
	c-0.15,0.63-0.29,1.32-0.42,2.04c-2.93,3.27-6.71,6.74-10.59,8.29c0.22-1.5,0.44-3.01,0.69-4.53c7.24-44.52,35.21-49.71,35.21-49.71
	s1.01-15.25-14.53-15.57c-10.42-0.21-18.91,5.01-26.02,14.68c-2.27-7.02-9.03-11.81-21.14-12.06
	c-18.89-0.39-45.81,20.73-48.03,55.85c-0.51,8.03-0.02,14.59,1.14,19.95c-1.98,3.03-4.86,5.41-9.02,5.56
	c-10.13,0.37-0.16-27.15,1.87-38.49c2.04-11.34-4.07-15.06-10.75-15.82c-5.54-0.63-12.61-1.85-17.56-2.77
	c0.12-4.8-1.19-12.51-10.99-11.9c-14.22,0.88-19.65,23.41-3.67,26.65c-1.71,7.02-5.05,19.16-10.38,32.26
	c-8.3,20.39-18.11,33.61-28.17,34.26c-11.5,0.74-13.79-10.52-13.65-21.84c0.01-0.47,0.03-0.93,0.04-1.39
	c21.1-3.79,38.75-12.66,39.08-31.88c0.37-21.81-17.83-23.18-24.16-22.78c-13.67,0.85-34.17,17.61-40.03,43.53
	c-4.73-0.45-9.92-1.07-15.28-1.63c4.41-28.36,10.64-54.34,16.79-72.45c4.95-14.57,0.22-14.85-5.5-14.57
	c-10.41,0.5-13.66,1.04-22.54,22.07c-2.26,5.36-4.39,10.76-6.37,16.16c-5.89,6.19-14.64,12.65-25.66,12.96
	c-11.11,0.3-19.63-4.36-19.94-21.56c-0.3-17.2,15.9-45.34,54.14-45.5c49.45-0.21,90.13,40.88,127.02,40.47
	c37.79-0.42,54.97-20.98,55.66-42.52c0.7-21.66-12.85-33.08-26.41-33.5c-13.56-0.42-17.79,4.59-17.79,4.59s4.56,5.54,4.44,16.84
	c-0.13,11.92-11.74,25.87-32.84,25.93c-33.53,0.09-70.23-29.94-118.25-29.71c-41.84,0.2-75.69,25.33-75.7,59.08
	c0,37.57,32.01,44.77,47.96,44.23c8.94-0.3,14.95-2.59,18.81-4.94c-2.05,7.28-3.81,14.49-5.29,21.58
	c-23.73,2.27-44.41,11.05-44.26,31.11c0.2,27.06,26.1,25.08,38.77,22.49c0.76,29.58,9.38,34.59,15.95,37.95
	c9.66,4.95,15.37,6.7,14.97-7.36c-0.63-21.77,0.96-45.31,3.86-68c3.16-0.03,6.45-0.04,9.85-0.05c1.97,0,3.97-0.02,5.99-0.07
	c0,0,0,0,0,0c-0.44,31.6,13.29,43.42,34.05,43.18c30.47-0.34,49.8-54.54,57.43-87.48c2.7,1.09,3.94,3.1,3.34,6.35
	c-1.32,7.05-4.22,18.22-4.62,31.29c-0.57,18.8,6.01,30.5,21.41,30.12c11.89-0.29,19.22-9.38,23.6-18.52
	c5.81,7.2,13.69,8.51,18.93,7.6c5.45-0.95,10.33-3.75,14.51-7.23c-2.61,11.02-6.97,26.5-13.65,42c-18.9-4.5-38.46-8.75-62.07-8.19
	c-49.78,1.19-78.79,22.82-78.78,53.2c0.01,32.59,32.19,48.62,66.37,48.83c34.04,0.21,72.6-13.19,99.43-61.07
	c1.23-2.2,2.37-4.38,3.43-6.56c15.01,2.85,30.87,4.8,48.87,4.11c56.69-2.19,85.78-40.05,86.33-65.55
	C699.76,140.34,684.69,128.1,664.34,123.32z M330.08,180.22c-4.52-0.4-9.46-2.36-9.33-9.04c0.14-7.19,4.24-11.39,11.35-13.86
	C331.02,165.23,330.34,172.89,330.08,180.22z M429.25,118.86c7.97-0.24,1.69,14.17-19.62,19.76
	C413.77,126.32,422.6,119.06,429.25,118.86z M648.76,110.6c0.02,1.78-0.4,4.49-1.16,7.66c-3.86-1.83-5.25-3.72-5.26-6.19
	C642.3,102.3,648.68,102.05,648.76,110.6z M620.29,131.31c0.24-2.87,1-5.52,2.04-7.91c2.71,8.81,9.44,13.72,16.61,16.33
	c-3.44,5.6-7.57,9.78-12.04,10.07C621.83,150.12,619.39,142.22,620.29,131.31z M541.4,140.13c-6.4-0.58-5.65-15.99-2.49-27.27
	c3.15-11.28,13.64-25.81,22.81-25.84c10.62-0.03,4.03,7.86,2.71,14.09c-0.41,1.95,0.02,3.36,0.86,4.39
	c-0.29,0.78-0.57,1.57-0.85,2.37C555.95,132.04,547.7,140.7,541.4,140.13z M471.22,258.83c-29.49,0.32-40.01-9.83-39.94-19.52
	c0.08-11.44,19.24-25.42,44.57-25.96c18.39-0.39,34.73,2.33,50.78,5.77C514.12,240.71,496.23,258.56,471.22,258.83z M668.03,168.5
	c-0.84,18.79-24.86,41.35-68.42,42.23c-9.97,0.2-19.29-0.62-28.29-2.01c5.34-17.4,6.81-34.53,8.6-52.22
	c3.58-1.49,8.87-4.5,12.28-10.13c1.45,13.47,7.83,27.25,25.93,27.69c14.14,0.35,28.96-10.41,37.76-30.36
	C664.92,147.7,668.49,158.2,668.03,168.5z"/>
<path class="st0" d="M39.94,94.91c-1.96,0-3.71,0.44-5.67,1.53c-3.93,2.18-7.2,5.45-9.6,7.85c-1.31,1.31-2.18,2.18-2.62,2.4V58.65
	c0-1.66-1.34-3-3-3H3.03c-1.66,0-3,1.34-3,3v154.31c0,1.66,1.34,3,3,3h16.03c1.66,0,3-1.34,3-3v-91c0.65-1.09,1.31-1.96,1.96-2.84
	c1.53-1.53,2.84-2.83,5.24-2.83c2.62,0,5.23,0.65,5.23,5.23v91.44c0,1.66,1.34,3,3,3h16.03c1.66,0,3-1.34,3-3v-94.71
	c0-5.02-1.31-10.91-3.93-15.49C49.98,98.4,45.83,94.91,39.94,94.91z M100.35,94.91c-7.2,0-12.65,1.53-16.36,4.8
	c-7.85,6.54-11.56,15.05-12.21,26.61v59.98c0.22,5.89,1.53,11.12,3.49,15.7c3.49,7.85,10.69,15.7,24.86,15.7
	c7.2,0,12.65-1.53,16.58-4.8c7.85-6.33,11.34-14.4,12-25.96v-10.74c0-1.66-1.34-3-3-3h-14.5c-1.66,0-3,1.34-3,3v10.09
	c0,2.4-0.22,4.36-0.87,6.11c-0.87,3.27-2.83,5.89-6.98,5.89c-1.96,0-3.49-0.65-4.58-1.75c-1.96-2.4-3.27-5.67-3.49-10.25v-25.96
	h33.42c1.66,0,3-1.34,3-3v-31.68c-0.22-5.67-1.53-10.69-3.49-15.27C121.73,102.76,114.53,94.91,100.35,94.91z M108.21,143.11H92.29
	v-16.79c0.22-2.4,0.44-4.36,1.09-6.11c1.09-3.27,2.84-6.11,6.98-6.11c1.96,0,3.71,0.65,4.8,1.75c2.18,2.62,3.05,5.89,3.05,10.47
	V143.11z M271.56,110.4c-3.49-7.63-10.69-15.49-24.86-15.49c-7.2,0-12.65,1.53-16.36,4.8c-7.63,6.54-11.12,15.05-11.78,26.61v59.98
	c0.22,5.89,1.53,11.12,3.49,15.7c3.49,7.85,10.47,15.7,24.65,15.7c7.2,0,12.65-1.53,16.58-4.8c7.63-6.33,11.12-14.4,11.78-25.96
	v-61.29C274.83,119.99,273.52,114.98,271.56,110.4z M253.67,192.41c-0.87,3.27-2.84,5.89-6.98,5.89c-1.96,0-3.49-0.65-4.58-1.75
	c-1.96-2.4-3.05-5.67-2.84-10.25v-59.98c-0.22-2.4,0-4.36,0.65-6.11c0.87-3.27,2.62-6.11,6.76-6.11c1.96,0,3.71,0.65,4.8,1.75
	c2.18,2.62,3.05,5.89,2.84,10.47v59.98C254.54,188.7,254.33,190.66,253.67,192.41z M200.29,55.65h-16.03c-1.66,0-3,1.34-3,3v154.31
	c0,1.66,1.34,3,3,3h16.03c1.66,0,3-1.34,3-3V58.65C203.29,56.99,201.95,55.65,200.29,55.65z M163,55.65h-16.03c-1.66,0-3,1.34-3,3
	v154.31c0,1.66,1.34,3,3,3H163c1.66,0,3-1.34,3-3V58.65C166,56.99,164.66,55.65,163,55.65z"/>
<path class="st0" d="M704.43,204.28h-10.7c-0.55,0-1,0.45-1,1v11.43c0,0.55,0.45,1,1,1h10.7c0.55,0,1-0.45,1-1v-11.43
	C705.43,204.73,704.99,204.28,704.43,204.28z M727.69,150.57c-4.35,0-8.35,1.21-11.13,4.23c-2.78,3.02-4.47,7.98-4.47,15.36v28.91
	c0,7.38,1.69,12.34,4.47,15.36c2.78,3.02,6.77,4.23,11.13,4.23c5.2,0,9.07-1.09,11.73-3.99c2.66-2.9,3.99-7.62,3.99-15v-5.41
	c0-0.55-0.45-1-1-1H732.2c-0.55,0-1,0.45-1,1v8.19c0,3.99-0.72,5.32-3.51,5.32c-3.27,0-3.39-2.9-3.39-5.32v-35.68
	c0-2.42,0.12-5.32,3.39-5.32c2.78,0,3.51,1.33,3.51,5.32v6.98c0,0.55,0.45,1,1,1h10.22c0.55,0,1-0.45,1-1v-4.2
	c0-7.38-1.33-12.1-3.99-15C736.76,151.66,732.89,150.57,727.69,150.57z M765.67,150.57c-3.99,0-7.02,0.85-9.07,2.66
	c-4.23,3.63-6.17,8.35-6.53,14.76v33.26c0.12,3.27,0.85,6.17,1.93,8.71c1.94,4.35,5.81,8.71,13.67,8.71c3.99,0,7.01-0.85,9.19-2.66
	c4.23-3.51,6.17-7.98,6.53-14.39v-33.99c-0.12-3.14-0.85-5.93-1.94-8.47C777.53,154.93,773.53,150.57,765.67,150.57z M769.54,204.64
	c-0.48,1.81-1.57,3.27-3.87,3.27c-1.09,0-1.94-0.36-2.54-0.97c-1.09-1.33-1.69-3.15-1.57-5.69v-33.26c-0.12-1.33,0-2.42,0.36-3.39
	c0.48-1.81,1.45-3.39,3.75-3.39c1.09,0,2.05,0.36,2.66,0.97c1.21,1.45,1.69,3.27,1.57,5.81v33.26
	C770.03,202.59,769.9,203.67,769.54,204.64z M836.79,154.93c-1.45-2.42-3.75-4.35-7.02-4.35c-1.09,0-2.18,0.36-3.27,0.97
	c-2.3,1.33-4.36,2.9-5.93,4.6c-0.85,0.85-1.45,1.45-1.94,1.81c-1.33-3.87-3.87-7.38-8.22-7.38c-1.09,0-2.06,0.24-3.14,0.85
	c-2.18,1.21-4.23,3.02-5.56,4.35c-0.73,0.73-1.21,1.21-1.45,1.33v-4.56c0-0.55-0.45-1-1-1h-10.22c-0.55,0-1,0.45-1,1v64.16
	c0,0.55,0.45,1,1,1h10.22c0.55,0,1-0.45,1-1v-51.13c0.36-0.61,0.85-1.09,1.33-1.57c0.85-0.85,1.94-1.57,3.27-1.57
	s3.27,0.36,3.27,2.9v51.37c0,0.55,0.45,1,1,1h9.49c0.55,0,1-0.45,1-1v-51.13c0.36-0.61,0.85-1.09,1.33-1.57
	c0.85-0.85,1.94-1.57,3.27-1.57s3.27,0.36,3.27,2.9v51.37c0,0.55,0.45,1,1,1h9.49c0.55,0,1-0.45,1-1v-53.19
	C838.97,160.73,838.25,157.47,836.79,154.93z"/>
</svg>
